<?xml version="1.0" encoding="UTF-8" standalone="no"?>
<!-- Created with Inkscape (http://www.inkscape.org/) -->
<svg xmlns:svg="http://www.w3.org/2000/svg" xmlns="http://www.w3.org/2000/svg" version="1.0" width="210mm" height="210mm" id="svg2">
    <defs id="defs5"/>
    <g transform="matrix(1.838166,0,0,1.838166,-64.3648,-50.94291)" id="g3086">
        <path d="M 86.952451,350.25926 L 211.48225,288.56327 L 211.48225,320.29978 L 130.43423,360.55443" style="fill:#9b8083;fill-opacity:1;fill-rule:evenodd;stroke:none;stroke-width:1px;stroke-linecap:butt;stroke-linejoin:miter;stroke-opacity:1" id="path2207"/>
        <path d="M 86.658325,329.93645 L 184.36654,281.93854 L 211.34752,288.84606 L 86.885484,350.46546" style="fill:#ffffc8;fill-opacity:1;fill-rule:evenodd;stroke:none;stroke-width:1px;stroke-linecap:butt;stroke-linejoin:miter;stroke-opacity:1" id="path3954"/>
        <path d="M 68.484778,359.64478 L 87.068021,350.37735 L 86.685237,157.41184 L 68.152531,153.22704" style="fill:#9b8083;fill-opacity:1;fill-rule:evenodd;stroke:none;stroke-width:1px;stroke-linecap:butt;stroke-linejoin:miter;stroke-opacity:1" id="path1331"/>
        <path d="M 247.44219,388.17706 L 87.140094,350.28156 L 68.541801,359.56405 L 247.14328,402.3755" style="fill:#ffffc8;fill-opacity:1;fill-rule:evenodd;stroke:none;stroke-width:1px;stroke-linecap:butt;stroke-linejoin:miter;stroke-opacity:1" id="path2209"/>
        <path d="M 41,114.375 L 41,384.3125 L 273.21875,440.0625 L 273.42958,169.08208 L 41,114.375 z M 68.53125,153.5625 L 245.78125,195.375 L 245.78125,402.15625 L 68.53125,359.59375 L 68.53125,153.5625 z " style="fill:#bcdaff;fill-opacity:1;fill-rule:evenodd;stroke:none;stroke-width:1px;stroke-linecap:butt;stroke-linejoin:miter;stroke-opacity:1" id="path4030"/>
        <path d="M 434.76093,90.164629 L 434.76093,360.10211 L 273.25673,440.17893 L 273.25673,169.0931 L 434.76093,90.164629 z M 415.61341,132.23628 L 292.33905,192.61706 L 292.33905,399.39831 L 415.61341,338.26753 L 415.61341,132.23628 z " style="fill:#9b8083;fill-opacity:1;fill-rule:evenodd;stroke:none;stroke-width:0.99999982px;stroke-linecap:butt;stroke-linejoin:miter;stroke-opacity:1" id="path4037"/>
        <path d="M 86.943958,111.8566 L 210.94182,50.494216 L 210.94182,82.633978 L 130.62329,122.04112 L 130.62329,122.04112" style="fill:#9b8083;fill-opacity:1;fill-rule:evenodd;stroke:none;stroke-width:1px;stroke-linecap:butt;stroke-linejoin:miter;stroke-opacity:1" id="path5814"/>
        <path d="M 389.07175,93.295537 L 210.73046,50.388534 L 210.83614,82.621628 L 345.18596,114.8157" style="fill:#bcdaff;fill-opacity:1;fill-rule:evenodd;stroke:none;stroke-width:1px;stroke-linecap:butt;stroke-linejoin:miter;stroke-opacity:1" id="path5816"/>
        <path d="M 202.8125,34.53125 L 41.40625,114.46875 L 273.34375,169 L 434.8125,90.28125 L 202.8125,34.53125 z M 211.0625,50.4375 L 389.3125,93.28125 L 265.25,153.71875 L 87.0625,111.84375 L 211.0625,50.4375 z " style="fill:#ffffc8;fill-opacity:1;fill-rule:evenodd;stroke:none;stroke-width:0.99999976px;stroke-linecap:butt;stroke-linejoin:miter;stroke-opacity:1" id="path5803"/>
        <path d="M 210.83037,82.657166 L 230.32439,87.325903 L 230.32439,279.44925 L 210.83037,289.14643 L 211.31122,289.09834" style="fill:#9b8083;fill-opacity:1;fill-rule:evenodd;stroke:none;stroke-width:1px;stroke-linecap:butt;stroke-linejoin:miter;stroke-opacity:1" id="path3964"/>
        <path d="M 184.30989,282.14977 L 184.30989,95.620557 L 210.81896,82.69695 L 211.37459,288.91137" style="fill:#bcdaff;fill-opacity:1;fill-rule:evenodd;stroke:none;stroke-width:1px;stroke-linecap:butt;stroke-linejoin:miter;stroke-opacity:1" id="path1325"/>
        <path d="M 211.52275,288.79783 L 211.52275,320.22737 L 346.0142,352.5246 L 389.68777,331.21807" style="fill:#bcdaff;fill-opacity:1;fill-rule:evenodd;stroke:none;stroke-width:1px;stroke-linecap:butt;stroke-linejoin:miter;stroke-opacity:1" id="path4846"/>
        <path d="M 390.53194,317.33115 L 230.46317,279.36899 L 211.63155,288.7848 L 390.23303,331.52959" style="fill:#ffffc8;fill-opacity:1;fill-rule:evenodd;stroke:none;stroke-width:1px;stroke-linecap:butt;stroke-linejoin:miter;stroke-opacity:1" id="path4842"/>
        <path d="M 415.72361,132.10888 L 389.56901,144.69037 L 389.43568,331.13994 L 415.85694,338.0122" style="fill:#bcdaff;fill-opacity:1;fill-rule:evenodd;stroke:none;stroke-width:1px;stroke-linecap:butt;stroke-linejoin:miter;stroke-opacity:1" id="path2205"/>
        <path d="M 415.76525,338.12495 L 292.36736,399.36041 L 292.36736,378.71707 L 389.50452,331.22615 L 415.76525,338.12495 z " style="fill:#ffffc8;fill-opacity:1;fill-rule:evenodd;stroke:none;stroke-width:1px;stroke-linecap:butt;stroke-linejoin:miter;stroke-opacity:1" id="path4848"/>
    </g>
</svg>